<svg xmlns="http://www.w3.org/2000/svg" height="40px" viewBox="0 -960 960 960" width="40px" fill="#FFFFFF"><path d="M300-162.57v-435.07q0-26.02 18.31-44.19Q336.61-660 362.77-660h434.66q25.71 0 44.14 18.43T860-597.43v308.97L671.54-100H362.57q-25.71 0-44.14-18.43T300-162.57ZM101-710.51q-4.95-25.87 10.09-46.62 15.04-20.74 40.91-25.69l428.46-75.77q25.87-4.95 46.62 9.89 20.74 14.83 25.69 40.7l12.2 70.05h-50.66l-11.16-62.92q-.77-4.23-4.61-6.73-3.85-2.5-8.46-1.73l-429.03 75.74q-5.13.77-7.95 5.13-2.82 4.36-2.05 9.49l71 402.39v82.68q-16.74-4.2-28.97-16.91-12.23-12.7-15.84-31.2L101-710.51Zm249.26 113.08v434.86q0 5.39 3.46 8.85t8.85 3.46h281.22v-165.95h165.95v-281.22q0-5.39-3.46-8.85t-8.85-3.46H362.57q-5.39 0-8.85 3.46t-3.46 8.85ZM580-380Z"/></svg>